<?xml version="1.0"?>
<svg width="100" height="100" xmlns="http://www.w3.org/2000/svg" xmlns:svg="http://www.w3.org/2000/svg" xmlns:xlink="http://www.w3.org/1999/xlink">
 <g class="layer">
  <title>Layer 1</title>
  <rect fill="#9be1a0" height="100" id="svg_1" rx="20" width="100"/>
  <use fill="url(#svg_5)" id="svg_4" transform="matrix(2.37616 0 0 2.32414 -4.53387 -10.9359)" x="6.95" xlink:href="#svg_3" y="8.22"/>
 </g>
 <defs>
  <symbol height="36" id="svg_3" viewBox="0 0 32 36" width="32" xmlns="http://www.w3.org/2000/svg">
   <path d="m31.91,2.35c-0.14,-0.45 -0.36,-0.87 -0.66,-1.22c-0.3,-0.36 -0.67,-0.64 -1.09,-0.83c-0.41,-0.2 -0.86,-0.3 -1.32,-0.3l-25.61,0c-0.46,-0.02 -0.91,0.07 -1.32,0.28c-0.42,0.2 -0.8,0.49 -1.1,0.85c-0.3,0.35 -0.53,0.77 -0.66,1.22c-0.14,0.45 -0.18,0.92 -0.13,1.38l2.92,25.85c0.2,1.76 1.02,3.39 2.3,4.57c1.25,1.18 2.88,1.84 4.57,1.85l12.47,0c1.69,-0.01 3.33,-0.66 4.59,-1.85c1.26,-1.19 2.07,-2.81 2.28,-4.57l1.58,-14.53l0,-0.22l1.23,-11.08c0.07,-0.47 0.05,-0.94 -0.05,-1.4zm-17.98,28.33l-1.78,0c-1.16,-0.06 -2.25,-0.53 -3.12,-1.33c-0.86,-0.8 -1.43,-1.89 -1.6,-3.08l-0.43,-3.17c-0.05,-0.49 0.08,-0.97 0.36,-1.36c0.29,-0.39 0.71,-0.64 1.18,-0.71c0.46,-0.06 0.94,0.06 1.31,0.35c0.38,0.29 0.64,0.72 0.71,1.2l0.43,3.14c0.05,0.34 0.21,0.66 0.46,0.88c0.25,0.24 0.57,0.38 0.91,0.39l1.78,0c0.47,0 0.92,0.2 1.26,0.54c0.33,0.35 0.52,0.82 0.52,1.31c0,0.49 -0.19,0.96 -0.52,1.3c-0.34,0.35 -0.79,0.54 -1.26,0.54l-0.21,0zm14.24,-17.03c-3.76,0.75 -6.96,0.9 -10.36,-1.85c-4.22,-3.45 -9.33,-2.34 -14.24,-0.54l-0.89,-7.82c-0.02,-0.08 -0.02,-0.16 0,-0.24c0.02,-0.08 0.06,-0.15 0.12,-0.21c0.04,-0.06 0.11,-0.12 0.18,-0.14c0.07,-0.02 0.14,-0.02 0.21,0l25.85,0c0.07,0.04 0.13,0.09 0.18,0.14c0.05,0.06 0.09,0.13 0.1,0.21c0.03,0.08 0.03,0.17 0,0.26l-1.15,10.19z" fill="#ffffff" id="svg_2"/>
  </symbol>
  <linearGradient id="svg_5">
   <stop id="jq_stop_8327" offset="0" stop-color="#ffffff"/>
   <stop id="jq_stop_9309" offset="1" stop-color="#ffffff"/>
  </linearGradient>
 </defs>
</svg>